# Blender v2.79 (sub 0) OBJ File: ''
# www.blender.org
mtllib neutronStar.mtl
o cco.stl.002
v 0.671357 -2.098789 -4.395171
v 1.128020 -2.010429 -4.544920
v 0.583800 -1.643259 -4.544920
v 1.103980 -1.478739 -4.687671
v 0.761857 -1.180869 -5.011020
v 1.294340 -1.322479 -5.036280
v 1.129800 -1.180869 -5.559220
v 1.592110 -1.643259 -5.381131
v 1.450550 -1.478739 -5.904050
v 1.591320 -2.010429 -5.929350
v 1.293590 -1.668359 -6.252690
v 1.127640 -2.187139 -6.395431
v 0.760860 -1.643259 -6.395431
v 0.671357 -2.098789 -6.545140
v 0.215086 -2.010429 -6.395431
v 0.581836 -2.554309 -6.395431
v 0.049107 -2.529189 -6.252690
v 0.238358 -2.875079 -6.095170
v -0.107898 -2.718829 -5.904050
v 0.212917 -3.016679 -5.559220
v -0.249436 -2.554309 -5.381131
v 0.048361 -2.875079 -5.036281
v -0.107490 -2.529189 -4.845160
v 0.238695 -2.718829 -4.687671
v 0.214705 -2.187139 -4.544920
v 0.758896 -2.554309 -4.544920
v 0.050962 -1.668359 -4.687671
v -0.248264 -2.010429 -5.011021
v -0.105225 -1.478739 -5.036281
v -0.247472 -1.643259 -5.559220
v 0.216874 -1.180869 -5.381130
v 0.051708 -1.322479 -5.904050
v 0.584797 -1.180869 -5.929350
v 0.241368 -1.478739 -6.252690
v 1.450140 -1.668359 -4.845160
v 0.241704 -1.322479 -4.845160
v 1.590930 -2.187139 -5.011021
v 1.739970 -2.098789 -5.470191
v 1.590140 -2.554309 -5.559220
v 1.448290 -2.529189 -6.095170
v 1.290990 -2.875079 -5.904050
v 1.101310 -2.718829 -6.252690
v 0.757899 -3.016679 -5.929350
v 1.291730 -2.529189 -4.687671
v 1.100970 -2.875079 -4.845160
v 0.580840 -3.016679 -5.011021
v 1.125850 -3.016679 -5.381131
v 0.669058 -3.165219 -5.470191
v 1.447880 -2.718829 -5.036281
v 0.673655 -1.032349 -5.470190
v 1.104320 -1.322479 -6.095170
v 0.671356 -2.099029 -5.470191
v 0.671102 -2.098789 -5.470191
v 0.671357 -2.098789 -5.470420
v 0.671595 -2.098789 -5.470191
v -0.397303 -2.098789 -5.470191
v -0.248645 -2.187139 -5.929350
v 0.671357 -2.098529 -5.470191
v -0.105634 -1.668359 -6.095170
v 0.671357 -2.098789 -5.469901
vn 0.2319 0.3437 0.9100
vn 0.1772 0.2627 0.9485
vn -0.0352 0.7162 0.6970
vn 0.2442 0.8281 0.5045
vn 0.2608 0.9494 0.1750
vn 0.7134 0.6998 -0.0350
vn 0.7000 0.7133 0.0349
vn 0.9496 0.2598 -0.1753
vn 0.8281 0.2433 -0.5051
vn 0.7154 -0.0369 -0.6977
vn 0.2625 0.1770 -0.9486
vn 0.3435 0.2316 -0.9101
vn -0.2318 0.3445 -0.9097
vn -0.3435 -0.2316 -0.9101
vn -0.2625 -0.1770 -0.9486
vn -0.2450 -0.5097 -0.8248
vn -0.5785 -0.5784 -0.5751
vn -0.5071 -0.8270 -0.2426
vn -0.6999 -0.7134 0.0350
vn -0.7134 -0.6999 -0.0350
vn -0.8271 -0.5069 0.2428
vn -0.5785 -0.5784 0.5751
vn -0.5093 -0.2445 0.8251
vn -0.1772 -0.2626 0.9485
vn -0.2319 -0.3437 0.9100
vn 0.3434 -0.2331 0.9098
vn -0.3434 0.2331 0.9098
vn -0.2625 0.1781 0.9484
vn -0.7155 -0.0338 0.6978
vn -0.8273 0.2465 0.5048
vn -0.9486 0.2635 0.1751
vn -0.6984 0.7148 -0.0349
vn -0.7119 0.7014 0.0349
vn -0.2605 0.9495 -0.1748
vn -0.2440 0.8285 -0.5041
vn 0.0352 0.7161 -0.6971
vn -0.1772 0.2633 -0.9483
vn 0.5785 0.5784 0.5752
vn 0.8272 0.5068 0.2428
vn -0.2449 0.5104 0.8243
vn -0.5777 0.5801 0.5743
vn 0.0353 0.7027 0.7106
vn -0.1759 0.9497 0.2591
vn -0.5062 0.8277 0.2421
vn 0.5093 0.2446 0.8251
vn 0.7020 -0.0369 0.7112
vn 0.9497 0.1747 0.2598
vn 0.9119 0.2295 0.3402
vn 0.9117 0.3408 -0.2296
vn 0.9111 -0.2333 -0.3398
vn 0.9490 -0.1787 -0.2596
vn 0.8257 -0.5094 -0.2424
vn 0.5777 -0.5800 -0.5743
vn 0.2440 -0.8285 -0.5040
vn -0.0352 -0.7161 -0.6971
vn 0.0352 -0.7028 -0.7105
vn 0.7155 0.0338 0.6978
vn 0.2625 -0.1781 0.9484
vn 0.2449 -0.5104 0.8243
vn -0.0353 -0.7027 0.7106
vn 0.1759 -0.9497 0.2591
vn 0.2304 -0.9120 0.3393
vn 0.3411 -0.9117 -0.2289
vn -0.2307 -0.9118 -0.3396
vn -0.1761 -0.9496 -0.2593
vn 0.8273 -0.2466 0.5047
vn 0.5777 -0.5801 0.5743
vn 0.5062 -0.8277 0.2422
vn -0.7020 0.0369 0.7112
vn -0.9498 -0.1747 0.2597
vn 0.0352 -0.7162 0.6970
vn -0.2442 -0.8282 0.5045
vn -0.2608 -0.9494 0.1750
vn -0.2304 0.9120 0.3393
vn 0.3415 0.9115 0.2292
vn 0.2306 0.9119 -0.3396
vn 0.1761 0.9496 -0.2593
vn -0.0352 0.7028 -0.7105
vn 0.2450 0.5097 -0.8247
vn -0.5463 -0.5780 -0.6062
vn 0.5721 -0.5694 -0.5903
vn -0.9104 0.3443 0.2293
vn -0.9111 0.2333 -0.3399
vn -0.9117 -0.3408 -0.2296
vn -0.9496 -0.2597 -0.1753
vn 0.9104 -0.3443 0.2293
vn 0.9486 -0.2635 0.1751
vn 0.6985 -0.7148 -0.0349
vn -0.5589 0.5494 -0.6211
vn 0.5850 0.5370 -0.6078
vn -0.9119 -0.2295 0.3402
vn -0.3416 -0.9115 0.2292
vn 0.5072 0.8270 -0.2426
vn 0.5785 0.5785 -0.5751
vn -0.3411 0.9117 -0.2289
vn -0.8256 0.5095 -0.2424
vn -0.5777 0.5801 -0.5743
vn -0.5091 0.2466 -0.8247
vn -0.5879 -0.6221 0.5171
vn 0.6130 -0.6102 0.5018
vn -0.9491 0.1787 -0.2595
vn -0.7020 -0.0338 -0.7113
vn -0.7154 0.0369 -0.6978
vn -0.6051 0.5929 0.5313
vn 0.6310 0.5775 0.5181
vn 0.7119 -0.7014 0.0349
vn 0.2605 -0.9495 -0.1748
vn 0.5091 -0.2466 -0.8246
vn 0.1772 -0.2634 -0.9483
vn 0.2318 -0.3445 -0.9097
vn 0.7021 0.0338 -0.7113
vn -0.8280 -0.2432 -0.5052
usemtl cco-mtl.002
s 1
f 1//1 2//1 3//1
f 3//2 2//2 4//2
f 3//3 4//3 5//3
f 5//4 4//4 6//4
f 5//5 6//5 7//5
f 7//6 6//6 8//6
f 7//7 8//7 9//7
f 9//8 8//8 10//8
f 9//9 10//9 11//9
f 11//10 10//10 12//10
f 11//11 12//11 13//11
f 13//12 12//12 14//12
f 13//13 14//13 15//13
f 15//14 14//14 16//14
f 15//15 16//15 17//15
f 17//16 16//16 18//16
f 17//17 18//17 19//17
f 19//18 18//18 20//18
f 19//19 20//19 21//19
f 21//20 20//20 22//20
f 21//21 22//21 23//21
f 23//22 22//22 24//22
f 23//23 24//23 25//23
f 25//24 24//24 26//24
f 26//25 1//25 25//25
f 1//26 26//26 2//26
f 1//27 3//27 25//27
f 25//28 3//28 27//28
f 25//29 27//29 28//29
f 28//30 27//30 29//30
f 28//31 29//31 30//31
f 30//32 29//32 31//32
f 30//33 31//33 32//33
f 32//34 31//34 33//34
f 32//35 33//35 34//35
f 34//36 33//36 13//36
f 34//37 13//37 15//37
f 4//38 35//38 6//38
f 6//39 35//39 8//39
f 3//40 36//40 27//40
f 27//41 36//41 29//41
f 3//42 5//42 36//42
f 36//43 5//43 31//43
f 36//44 31//44 29//44
f 4//45 2//45 35//45
f 35//46 2//46 37//46
f 35//47 37//47 8//47
f 8//48 37//48 38//48
f 8//49 38//49 10//49
f 10//50 38//50 39//50
f 10//51 39//51 40//51
f 40//52 39//52 41//52
f 40//53 41//53 42//53
f 42//54 41//54 43//54
f 42//55 43//55 16//55
f 16//56 43//56 18//56
f 37//57 2//57 44//57
f 44//58 2//58 26//58
f 44//59 26//59 45//59
f 45//60 26//60 46//60
f 45//61 46//61 47//61
f 47//62 46//62 48//62
f 47//63 48//63 43//63
f 43//64 48//64 20//64
f 43//65 20//65 18//65
f 37//66 44//66 49//66
f 49//67 44//67 45//67
f 49//68 45//68 47//68
f 25//69 28//69 23//69
f 23//70 28//70 21//70
f 26//71 24//71 46//71
f 46//72 24//72 22//72
f 46//73 22//73 20//73
f 31//74 5//74 50//74
f 50//75 5//75 7//75
f 50//76 7//76 33//76
f 33//77 7//77 51//77
f 33//78 51//78 13//78
f 13//79 51//79 11//79
f 52//80 53//80 54//80
f 54//81 55//81 52//81
f 28//82 30//82 56//82
f 56//83 30//83 57//83
f 56//84 57//84 21//84
f 21//85 57//85 19//85
f 38//86 37//86 39//86
f 39//87 37//87 49//87
f 39//88 49//88 47//88
f 53//89 58//89 54//89
f 54//90 58//90 55//90
f 21//91 28//91 56//91
f 48//92 46//92 20//92
f 7//93 9//93 51//93
f 51//94 9//94 11//94
f 31//95 50//95 33//95
f 30//96 32//96 59//96
f 59//97 32//97 34//97
f 59//98 34//98 15//98
f 60//99 53//99 52//99
f 55//100 60//100 52//100
f 30//101 59//101 57//101
f 57//102 59//102 15//102
f 57//103 15//103 17//103
f 60//104 58//104 53//104
f 58//105 60//105 55//105
f 39//106 47//106 41//106
f 41//107 47//107 43//107
f 40//108 42//108 12//108
f 12//109 42//109 16//109
f 12//110 16//110 14//110
f 40//111 12//111 10//111
f 17//112 19//112 57//112
